<svg version="1.1" id="Layer_1" xmlns="http://www.w3.org/2000/svg" x="0" y="0" viewBox="0 0 504.224 504.224" xml:space="preserve"><path d="M495.065 450.956l-98.462-98.462c.788-3.151.788-6.695.788-10.24 0-30.326-24.812-55.138-55.138-55.138s-55.138 24.812-55.138 55.138 24.812 55.138 55.138 55.138c3.545 0 7.089-.394 10.24-.788l98.068 98.462c12.209 12.209 31.902 12.209 44.111 0 12.602-12.208 12.602-31.901.393-44.11zm0 0l-98.462-98.462c.788-3.151.788-6.695.788-10.24 0-30.326-24.812-55.138-55.138-55.138s-55.138 24.812-55.138 55.138 24.812 55.138 55.138 55.138c3.545 0 7.089-.394 10.24-.788l98.068 98.462c12.209 12.209 31.902 12.209 44.111 0 12.602-12.208 12.602-31.901.393-44.11z" fill="#b7854e"/><path d="M291.446 321.774c11.422 8.665 24.025 18.905 31.508 29.538 10.24 14.178 18.117 28.357 25.994 43.717l1.182 2.363 2.363-.394 9.846 9.846-8.271-14.966c-8.271-15.36-15.754-29.932-26.388-44.505-8.271-11.422-22.055-22.449-33.871-31.508-.394 1.971-1.575 3.94-2.363 5.909zm131.939 128c-9.058-18.511-15.36-35.052-21.268-50.018-11.422-29.932-20.086-51.594-40.96-61.046-11.028-4.726-16.935-5.514-20.086-1.575-5.12 5.908 1.182 18.117 18.511 44.898l37.415 58.289c.394.394.394.788.788.788 1.182.788 2.363.788 3.545 0 1.575-.788 1.969-2.757.788-4.332l-37.415-58.289c-5.908-9.058-21.268-33.477-18.905-37.415 0 0 1.969-1.182 12.603 3.545 18.511 8.271 26.388 27.963 37.809 57.502 5.514 14.572 12.209 31.508 21.268 50.412 3.151 6.695 5.514 11.815 7.483 16.542l11.028 11.028c-1.971-6.698-5.909-16.15-12.604-30.329zm41.747 47.262c-12.209-23.237-24.812-47.262-30.326-61.834-1.575-3.938-2.757-8.271-4.332-12.603-6.695-19.692-14.966-43.717-30.326-66.166l-3.545-3.545v-1.182c-10.24-13.391-23.237-25.994-40.172-36.234h-13.785c53.169 24.812 70.105 74.437 81.92 109.095 1.575 4.726 3.151 8.665 4.332 12.997 5.514 14.966 18.117 39.385 30.326 62.622.394.394.394.788.788 1.575 2.757 1.182 5.514 1.969 8.665 2.363l-3.545-7.088zM331.618 396.605c2.363.394 5.12.788 7.877.788-12.209-23.237-25.206-44.898-51.2-62.622-.394 2.363-.394 4.726-.788 7.483 21.268 15.36 33.084 33.871 44.111 54.351zm58.684-81.132H384c3.545 2.363 6.695 5.12 9.846 7.877-.788-2.757-1.969-5.514-3.544-7.877zm91.372 157.538c-7.089-18.905-9.058-33.083-5.514-40.566l-4.726-4.726c-4.332 7.483-5.514 21.268 4.332 47.655 3.151 7.877 6.695 16.935 10.634 25.994 1.969-.788 3.938-1.969 5.514-3.545-3.545-7.876-6.696-16.147-10.24-24.812zm22.055-4.332c-.394-3.938-1.969-7.877-3.938-11.422-3.151 7.089-3.151 18.511 0 31.902 2.363-3.938 3.938-8.665 4.332-12.997-.394-2.757-.394-5.12-.394-7.483zm-20.874 33.871c-17.329-37.809-33.083-78.375-44.505-108.308l-11.028-11.028 2.757 7.089c14.966 38.991 30.326 78.375 46.474 113.822 2.364-.394 4.333-.787 6.302-1.575z" fill="#be8d54"/><path d="M500.185 488.371c6.695-11.815 5.12-27.175-5.12-37.415l-98.068-98.462c.788-3.151.788-6.695.788-10.24 0-30.326-24.812-55.138-55.138-55.138-12.209 0-23.237 3.938-32.689 10.634-6.695 9.452-10.634 20.874-10.634 33.083 0 30.326 24.812 55.138 55.138 55.138 3.545 0 7.089-.394 10.24-.788l98.068 98.462c10.239 9.846 25.599 11.422 37.415 4.726z" fill="#cc9357"/><path d="M313.108 367.067c4.726 5.12 10.24 9.452 16.148 12.603-7.483-12.209-16.148-24.025-27.963-34.658 1.575 6.695 4.726 12.603 8.665 18.117l3.15 3.938zm168.566 105.944c-7.089-18.905-9.058-33.083-5.514-40.566l-4.726-4.726c-4.332 7.483-5.514 21.268 4.332 47.655 1.969 5.12 4.332 11.028 6.695 16.935 2.363 0 4.726 0 6.695-.394-2.362-5.907-4.725-12.602-7.482-18.904zm22.055-4.332c-.394-3.938-1.969-7.877-3.938-11.422-3.151 6.695-3.151 18.117-.394 31.114 0 0 .394 0 .394-.394 2.363-3.938 3.545-8.665 3.938-12.997v-6.301zM299.323 328.076c9.058 7.089 17.723 15.36 23.631 23.237 8.271 11.028 14.572 22.055 20.874 33.477 2.363.394 5.12.788 7.877.788-7.089-12.997-14.178-25.6-23.237-38.203-7.089-9.452-17.723-18.905-27.963-26.782-.788 2.363-.788 4.726-1.182 7.483zm139.028 66.166l-11.028-11.028 2.757 7.089c12.603 33.083 25.994 66.954 39.778 97.674 2.757 1.575 5.514 2.757 8.271 3.151-15.754-34.264-29.538-69.71-39.778-96.886zm-48.049-78.769H384c3.545 2.363 6.695 5.12 9.846 7.877-.788-2.757-1.969-5.514-3.544-7.877zM435.2 434.808c-1.575-3.938-2.757-8.271-4.332-12.603-6.695-19.692-14.966-43.717-30.326-66.166l-3.545-3.545v-1.182c-10.24-13.391-23.237-25.994-40.172-36.234h-14.178c53.169 24.812 70.105 74.437 81.92 109.095 1.575 4.726 3.151 8.665 4.332 12.997 1.969 5.908 5.514 13.391 9.452 21.662l14.178 14.178c-7.483-14.571-14.178-28.355-17.329-38.202zm-74.043-96.098c-11.028-4.726-16.935-5.514-20.086-1.575-5.12 5.908 1.182 18.117 18.511 44.898l1.969 3.151 3.151-.394 11.422 11.422-11.422-17.723c-5.908-9.058-21.268-33.477-18.905-37.415 0 0 1.969-1.182 12.603 3.545 18.511 8.271 26.388 27.963 37.809 57.502 2.757 7.483 5.908 15.36 9.452 23.631l12.209 12.209c-6.302-14.178-11.422-26.782-15.754-38.203-11.421-29.934-20.085-51.596-40.959-61.048z" fill="#d49d5e"/><path d="M204.8 39.387c91.372 0 165.415 74.043 165.415 165.415S296.172 370.218 204.8 370.218 39.385 296.174 39.385 204.802 113.428 39.387 204.8 39.387z" fill="#b4e7f8"/><path d="M204.8 39.387c-49.625 0-94.129 22.055-124.455 56.714 29.145-25.6 66.954-40.96 108.702-40.96 91.372 0 165.415 74.043 165.415 165.415 0 41.748-15.36 79.557-40.96 108.702 34.658-30.326 56.714-74.831 56.714-124.455-.001-91.373-74.044-165.416-165.416-165.416z" fill="#a6d5e5"/><path d="M204.8.002C91.766.002 0 91.768 0 204.802s91.766 204.8 204.8 204.8 204.8-91.766 204.8-204.8S317.834.002 204.8.002zm0 366.277c-89.009 0-161.477-72.468-161.477-161.477S115.791 43.325 204.8 43.325s161.477 72.468 161.477 161.477S293.809 366.279 204.8 366.279zm0-366.277C91.766.002 0 91.768 0 204.802s91.766 204.8 204.8 204.8 204.8-91.766 204.8-204.8S317.834.002 204.8.002zm0 366.277c-89.009 0-161.477-72.468-161.477-161.477S115.791 43.325 204.8 43.325s161.477 72.468 161.477 161.477S293.809 366.279 204.8 366.279z" fill="#3c5663"/></svg>